<svg  xmlns="http://www.w3.org/2000/svg" xmlns:xlink="http://www.w3.org/1999/xlink" width="91px" height="91px"><path fill-rule="evenodd"  stroke="rgb(255, 255, 255)" stroke-width="2px" stroke-linecap="butt" stroke-linejoin="miter" fill="rgb(231, 231, 231)" d="M45.000,1.000 C69.301,1.000 89.000,20.699 89.000,45.000 C89.000,69.300 69.301,89.000 45.000,89.000 C20.699,89.000 1.000,69.300 1.000,45.000 C1.000,20.699 20.699,1.000 45.000,1.000 Z"/><path fill-rule="evenodd"  fill="rgb(255, 255, 255)" d="M44.500,17.000 C53.060,17.000 60.000,23.940 60.000,32.500 C60.000,41.060 53.060,48.000 44.500,48.000 C35.940,48.000 29.000,41.060 29.000,32.500 C29.000,23.940 35.940,17.000 44.500,17.000 Z"/><path fill-rule="evenodd"  fill="rgb(255, 255, 255)" d="M45.000,69.000 L18.000,69.000 C18.000,69.000 18.878,55.237 31.000,48.000 C31.000,48.000 34.643,55.000 45.000,55.000 C55.357,55.000 59.000,48.000 59.000,48.000 C71.122,55.237 72.000,69.000 72.000,69.000 L45.000,69.000 Z"/></svg>